<svg xmlns="http://www.w3.org/2000/svg" xmlns:xlink="http://www.w3.org/1999/xlink" viewBox="0 0 217 217"><defs><style>.cls-1{fill:none;}.cls-2{fill:#fd2d01;}.cls-3{clip-path:url(#clip-path);}.cls-4{fill:#fff;}</style><clipPath id="clip-path"><ellipse class="cls-1" cx="108.5" cy="114.5" rx="105.34" ry="104"/></clipPath></defs><title>Fichier 2</title><g id="Calque_2" data-name="Calque 2"><g id="Layer_1" data-name="Layer 1"><circle class="cls-2" cx="108.5" cy="108.5" r="108.5"/><g class="cls-3"><path class="cls-4" d="M133.81,129.8a45.14,45.14,0,0,0,20.57-37.75c0-25-20.58-45.3-45.88-45.3S62.62,67.07,62.62,92.05A45.14,45.14,0,0,0,83.19,129.8c-28,10.21-48.1,36.78-48.1,67.95H47.32c0-33.31,27.45-60.4,61.18-60.4s61.18,27.09,61.18,60.4h12.23C181.91,166.58,161.83,140,133.81,129.8Zm-25.31-4.53a33.22,33.22,0,1,1,33.65-33.22A33.48,33.48,0,0,1,108.5,125.27Z"/></g></g></g></svg>