<svg xmlns="http://www.w3.org/2000/svg" viewBox="0 0 136.61 119.44"><defs><style>.cls-1{fill:#fff;}</style></defs><title>Fichier 1</title><g id="Calque_2" data-name="Calque 2"><g id="Objects"><path class="cls-1" d="M44,61.36l5.3-4.08a4.16,4.16,0,0,0,.65-.61C52.14,54.06,66.44,37,69.66,26.08a4.25,4.25,0,0,0,.16-1.18V7.33a5.88,5.88,0,0,1,2.34-4.68,12,12,0,0,1,13.49-1,4.22,4.22,0,0,1,1.61,1.5,60.21,60.21,0,0,1,7.11,17,16.38,16.38,0,0,1,.22,6.65L91.05,47.28a.73.73,0,0,0,.72.86h35.71a9,9,0,0,1,8.82,7,14.26,14.26,0,0,1,.31,3c0,5.56-3.18,8.13-5.35,9.23a1.29,1.29,0,0,0-.31,2.06,8.89,8.89,0,0,1,2.77,6.46c0,4-3,6.91-4.53,8.08a.86.86,0,0,0-.11,1.25,9.3,9.3,0,0,1,2.2,6.21c0,3.81-2.82,7-4.94,8.43a1.36,1.36,0,0,0-.38,1.86,13,13,0,0,1,1.77,6.79c0,5.33-5.33,9.54-10.43,9.54h-62a4.18,4.18,0,0,1-1.9-.45l-8.73-4.36a4.27,4.27,0,0,1-2.36-3.81V64.74A4.28,4.28,0,0,1,44,61.36Z"/><rect class="cls-1" y="55.31" width="42.3" height="64.12" rx="4.37"/></g></g></svg>